<mxfile host="app.diagrams.net" modified="2024-05-08T19:52:14.137Z" agent="Mozilla/5.0 (Macintosh; Intel Mac OS X 10_15_7) AppleWebKit/605.1.15 (KHTML, like Gecko) Version/17.4.1 Safari/605.1.15" version="24.3.1" etag="5qORgO4XcsVGbDa1i6Qm" type="github">
  <diagram name="Page-1" id="dnspijih9CA00CycZB1b">
    <mxGraphModel>
      <root>
        <mxCell id="0" />
        <mxCell id="1" parent="0" />
      </root>
    </mxGraphModel>
  </diagram>
</mxfile>
